{"title":"Che.Part.Two.2008.LIMITED.720p.BluRay.x264","uid":8399641,"size":1217304319,"categoryP":"video","categoryS":"hd___movies","magnet":"?xt=urn:btih:cc65fcd89b468069b80df3a551a8e376b6bdbb41&amp;dn=Che.Part.Two.2008.LIMITED.720p.BluRay.x264&amp;tr=udp%3A%2F%2Ftracker.openbittorrent.com%3A80&amp;tr=udp%3A%2F%2Fopen.demonii.com%3A1337&amp;tr=udp%3A%2F%2Ftracker.coppersurfer.tk%3A6969&amp;tr=udp%3A%2F%2Fexodus.desync.com%3A6969","seeders":4,"leechers":1,"uploader":"3xmvz","files":1,"time":1366662787,"description":"Format : MPEG-4\nFormat profile : Base Media\nCodec ID : isom\nFile size : 1.13 GiB\nDuration : 2h 15mn\nOverall bit rate mode : Variable\nOverall bit rate : 1 202 Kbps\n\nVideo\nID : 1\nFormat : AVC\nFormat/Info : Advanced Video Codec\nFormat profile : High &lt;a class=&quot;__cf_email__&quot; href=&quot;/cdn-cgi/l/email-protection&quot; data-cfemail=&quot;4475740408706a75&quot;&gt;[email&amp;#160;protected]&lt;/a&gt;&lt;script cf-hash='f9e31' type=&quot;text/javascript&quot;&gt;\n/* &lt;![CDATA[ */!function(){try{var t=&quot;currentScript&quot;in document?document.currentScript:function(){for(var t=document.getElementsByTagName(&quot;script&quot;),e=t.length;e--;)if(t[e].getAttribute(&quot;cf-hash&quot;))return t[e]}();if(t&amp;&amp;t.previousSibling){var e,r,n,i,c=t.previousSibling,a=c.getAttribute(&quot;data-cfemail&quot;);if(a){for(e=&quot;&quot;,r=parseInt(a.substr(0,2),16),n=2;a.length-n;n+=2)i=parseInt(a.substr(n,2),16)^r,e+=String.fromCharCode(i);e=document.createTextNode(e),c.parentNode.replaceChild(e,c)}}}catch(u){}}();/* ]]&gt; */&lt;/script&gt;\nFormat settings, CABAC : Yes\nFormat settings, ReFrames : 4 frames\nCodec ID : avc1\nCodec ID/Info : Advanced Video Coding\nDuration : 2h 15mn\nBit rate : 1 053 Kbps\nMaximum bit rate : 9 590 Kbps\nWidth : 1 280 pixels\nHeight : 720 pixels\nDisplay aspect ratio : 16:9\nFrame rate mode : Constant\nFrame rate : 23.976 fps\nColor space : YUV\nChroma subsampling : 4:2:0\nBit depth : 10 bits\nScan type : Progressive\nBits/(Pixel*Frame) : 0.048\nStream size : 1 017 MiB (88%)\n\nAudio\nID : 2\nFormat : AAC\nFormat/Info : Advanced Audio Codec\nFormat profile : LC\nCodec ID : 40\nDuration : 2h 15mn\nBit rate mode : Variable\nBit rate : 144 Kbps\nMaximum bit rate : 225 Kbps\nChannel(s) : 2 channels\nChannel positions : Front: L R\nSampling rate : 48.0 KHz\nCompression mode : Lossy\nStream size : 140 MiB (12%)\nLanguage : Spanish","torrent":{"xt":"urn:btih:cc65fcd89b468069b80df3a551a8e376b6bdbb41","amp;dn":"Che.Part.Two.2008.LIMITED.720p.BluRay.x264","amp;tr":["udp%3A%2F%2Ftracker.openbittorrent.com%3A80","udp%3A%2F%2Fopen.demonii.com%3A1337","udp%3A%2F%2Ftracker.coppersurfer.tk%3A6969","udp%3A%2F%2Fexodus.desync.com%3A6969"],"infoHash":"cc65fcd89b468069b80df3a551a8e376b6bdbb41","infoHashBuffer":{"type":"Buffer","data":[204,101,252,216,155,70,128,105,184,13,243,165,81,168,227,118,182,189,187,65]},"announce":[],"urlList":[]}}